<svg id="b4f38636-56d6-40ac-a5ad-79674d53ce05" data-name="Layer 1" xmlns="http://www.w3.org/2000/svg" viewBox="0 0 643.87 943.82"><path d="M420.17,1104.56c1.68,7.61,3.65,28.18,4.9,35.86.47,2.94.68,6.53-2.66,8.81-.52.35-.08,2.12-.08,3.68-2-.76-3.89-1.93-5.88-2.1-1.54-.12-3.21,1-4.77,1.62-4.72,2-4.71,2.06-8.65,1.4-.12-.53-.29-1.15-.39-1.78s-.09-1-.17-2c-.78,2.9-1.44,5.34-2.11,7.78l-.73-.13.54-5.32-.82-.15c-.29.89-.58,1.78-.84,2.54-.78-.55-1.7-1.71-2.36-1.58-5.29,1-10.82-1.48-16,1.23-.88.45-2.58-.69-4.56-1.3,0,.14-.07-.67-.25-2.26l-8,2.25c-.09-.7-.23-1.87-.35-2.85l-3.51.6a29.93,29.93,0,0,0,.33-3.1,26.16,26.16,0,0,0-.22-5.32c-3.17-15.91-1.74-55.89-.85-71.86a2.38,2.38,0,0,1,.51-1.58v15.87h.75c.24-12.28.38-24.57.72-36.85.43-15.58,1.18-73.15,1.47-88.73.12-6-.63-12-1-18-.17-2.74-.51-5.47-.49-8.2s-.56-4.22-3.71-3.85a101.43,101.43,0,0,1-12.65,1c-9.42,0-18.85-.38-28.28-.69-4.69-.16-9.36-.54-14.05-.82-9.08-.53-18.24-.5-27.22-1.78-6.36-.92-8.76,3.25-11.53,6.88-12.44,16.26-24.67,32.67-36.85,49.11-2.73,3.69-4.74,7.92-7.51,11.58-5.4,7.14-11.09,14.07-16.67,21.09-1.7,1.29-3.69,2.33-5,3.92-2.72,3.26-5.08,6.81-7.59,10.24-3.21,1.66-5.48,3.94-6,7.77-.13,1-1.35,1.76-2.08,2.63-4.24,5.09-8.42,10.24-12.76,15.24-1.32,1.51-3.1,2.61-5.28,4.4l.33-3.88-12.34,7-.58-.78c.3-.63.6-1.26,1.56-3.24-5.75.81-10.56,1.59-15.4,2.14a63.73,63.73,0,0,1-6.78,0c.27-2.23.5-4.06.76-6.15l-7.81-.5c.47-3.43,1-7.1,1.61-11.84l-3.08,2.64a23.35,23.35,0,0,1-3.31-1.7c-2.71-2-2.14-5.23-1.18-7.26,3.63-7.64,7.35-15.33,12-22.35,6.66-10,14.23-19.44,21.29-29.2.79-1.09.87-2.7,1.27-4,.44.05,1.32.35,1.49.12,4-5.39,9-10.36,11.53-16.37,5.49-12.93,15.9-22,23.81-33,11.46-15.94,23.85-31.23,35.92-46.74,6.6-8.49,13.35-16.87,20-25.31l.66-1.11c.26-.43.52-.86.79-1.29l.21,0L250,857c3.29-4.36,6.47-8.81,9.92-13,2.67-3.27,5.6-6.35,8.57-9.36.93-.94,2.37-1.36,3.92-2.21H269.7c1.94-3.07,3.57-6,5.55-8.71Q288.08,806.29,301.1,789c2-2.63,3.54-6,7.64-6.18.64,0,1.39-.84,1.84-1.47q17.51-24.25,34.94-48.57c1.64-2.29,4.36-4.74,4.31-7.06s-3.17-4.25-4.84-6.44c-4.25-5.55-8.27-11.3-12.73-16.69-3.38-4.09-7.46-7.6-10.92-11.63-10.93-12.71-21.8-25.46-32.47-38.38-2.81-3.41-4.66-7.58-7.2-11.23Q271,626,260.08,610.82a36.8,36.8,0,0,0-4-4.12c-1.68-2.17-3.23-4.45-5.07-6.47-3.57-3.92-7.3-7.7-11-11.53l-1.41-1.31-5-5.2-14-18.36c-1.23-2.05-2.33-4.21-3.72-6.15-3.12-4.34-7.1-8.23-9.37-13s-4.44-9.09-8.46-12.42c-3-3.89-6.36-7.57-8.94-11.72-2.69-4.35-4.41-9.3-7-13.73-1.4-2.38-3.75-4.21-5.66-6.3q-2.13-2.32-4.24-4.67l-.18-.82c0-.92.41-2.14,0-2.72-2.89-3.86-6-7.59-9-11.36-3.33-5.32-6.56-10.71-10-16-3.68-5.63-7.55-11.14-11.32-16.72-6.37-9.45-12.84-18.84-19-28.42-2.81-4.36-5-9.14-7.51-13.68-3.36-6-7.06-11.78-10.12-17.91-1.57-3.16-2.07-6.85-3.22-10.87l4.4,1.9c.89-2.89,1.68-5.5,2.55-8.37l2.14,1.4c1-3.37,2.86-3.65,6.15-.38-1.09-2.93-1.7-4.6-2.32-6.27l.57-.34,1.84,2.4.43-2.09,3.3-.69-.09-.82,3.82,2.13c.08-2.53-1.07-5.55,3-4.13-.33-1.12-.58-2-.83-2.86,2.09-.38,3.9,3.75,5.86.84l10.5,7.76L141.9,365l1-.92c4.89,4.93,10.16,9.55,14.56,14.89,5,6.12,9.29,12.88,13.89,19.37a54.45,54.45,0,0,1,4,5.75c3.71,7.08,8.76,13,14.12,18.93,5.71,6.28,10.65,13.29,15.64,20.2q15.23,21,30.1,42.32c6,8.61,11.59,17.56,17.73,26.09,4.72,6.57,10.21,12.58,15,19.08,9.58,13,18.82,26.16,28.4,39.12,8.3,11.24,16.86,22.29,25.31,33.42.08.11.16.27.28.31,5.92,2.11,7.57,8.36,11.73,12.27,4.65,4.37,8.05,10.08,12,15.18A145.09,145.09,0,0,0,356,643.21c1.43-85.39,1.43-170.71.65-257.2.28,2.54.44,3.95.6,5.36h1.1c0-12.6.09-25.2,0-37.8-.11-12.37-.42-24.74-.65-37.48-6.39,0-12.84-.11-19.28,0-9.5.2-19,.58-28.49.89-6.48.21-12.95.52-19.43.65-28,.57-56,1.24-84,1.54-13,.13-25.94-.6-38.91-.77-10.06-.13-20.11.11-30.17,0-7.7-.09-15.39-.59-23.1-.7-2.47,0-5,.93-7.43.84-8.15-.29-14.57-4.8-21.06-9.08-1.4-.93-2-2.48-3.69-6.4-.41-1-1.77-1.72-2.83-2.32-4.16-2.31-5.5-6.11-5.91-10.51a14.42,14.42,0,0,0-.9-2.94c3.43-1,4.26-2.85,3-6a20.19,20.19,0,0,1-.76-4.3l7-4.93-1.11-1C82,269,83,266,84.92,265.15c2.13-1,5.13,0,8.55.19l-4.85-3.2,10.81,2.77c0-.59.06-.8,0-.85-.39-.3-.81-.55-1.26-.85.21-.14.32-.26.43-.26,2.85-.08,5.78-.6,8.56-.15,22.89,3.68,46,2.56,69,2.49,24.93-.07,49.85-.54,74.77-.63,9.91,0,19.83.69,29.74.69,17.31,0,34.62-.2,51.92-.5,8.38-.15,16.75-.93,25.14-1.07,10.91-.17,21.84,0,32.75.06,13.05.12,26.09.45,39.14.49,8.58,0,17.29-1.33,25.72-.27,14.26,1.8,28.47-.15,42.73.93s28.62-.25,43-.52a2.32,2.32,0,0,1,1.73.53l-3.34.71,0,.56c16.3,0,32.6-.06,48.9,0,4.93,0,9.85.55,14.78.67,5.19.12,10.38.08,15.57,0,13.52-.22,27.24.82,40.51-1.15,12.43-1.86,24.15.77,36.17,1.52a3.47,3.47,0,0,1,.76.31c2.86.93,5.74,1.82,8.57,2.82a29.73,29.73,0,0,1,3.12,1.49H690.91c8.65,1,16.46,4.46,24.05,8.19-1,0-2.34,0-3.63,0s-3-.22-4,.42-1.4,2.22-2.4,4l7.35-2.22-3.41,4.38c6.61-.21,6.69-.14,6.27,4.9l-8,2.6c0,.25.09.5.14.74l8.67-.94.4,1.46c-4.39,4-11.06,2.2-16.32,6l8.82.67-1.56,2,9.08-.45c-6.06,4.72-12.62,6.66-19.53,8.46l2.49.67,0,.7L648,315v1.51h44.77c0,.51,0,1,0,1.53-8,.1-16.08.34-24.11.28-8.24-.06-16.48-.63-24.72-.55-7.7.07-15.4.85-23.11,1q-12.32.29-24.64-.45h8.85c0-.37,0-.74,0-1.11l-62.35-2.36-.17.93,10.22,2.06-.15,1.56-64.25-2.15-.11.75,3.4.78,0-.29H416c.65,19.41,1.33,40,2,60.86,69.55,4.11,139.28,1.69,209.07-.64-1.67.09-3.33.21-5,.26a19.19,19.19,0,0,0-5.21.53c5.37.3,10.82,1.31,16.07.66,3.19-.4,6.06-3.34,9-5.17,2.06-1.26,3.83-3.34,6.64-1.17.61.47,2.3-.28,3.41-.69,5.4-2,10.77-4.14,16.26-5.68l-4.52,3.2,1.25,1.63,4.64-1-1.51,3.29c2.47-.15,4.72-.31,7-.41,1.14,0,2.28,0,3.42.06a26.91,26.91,0,0,1-.79,3.36,28.78,28.78,0,0,1-2,3.49l5.61-2.42v5.4l4.47-3.95-2.2,4.86,3.48-2.87c1.84,8.23-.33,14.83-6,21.17-3.67,4.09-5.13,10.09-8.14,14.88-2.45,3.89-6,7.08-8.59,10.91-5.36,8-10.4,16.13-15.58,24.21l-10.43,16.34a18.87,18.87,0,0,0-3,2.28c-1.63,1.8-3.08,3.77-4.59,5.67l-9.41,14.23c-.46,1.27-.93,2.55-1.4,3.83l-.89,1.08a13.51,13.51,0,0,0-2.75,2c-2.47,2.89-4.8,5.89-7.19,8.85-3.21,4.54-6.51,9-9.6,13.62-2.45,3.66-4.63,7.48-6.93,11.23a11.05,11.05,0,0,0-2.39,1.9c-7.46,10.55-14.54,21.4-22.36,31.69-12.64,16.63-25.62,33-38.73,49.29-18,22.38-36.26,44.55-54.4,66.82-7,8.54-13.85,17.13-20.83,25.66-6.11,7.47-12.3,14.87-18.81,22.73,3.22,3.68,6.67,7.55,10,11.49,2.87,3.36,5.6,6.84,8.47,10.2,5,5.89,10.18,11.69,15.19,17.6,3.41,4,6.67,8.18,10,12.28l15.8,22.14c.12-1.58.14-2,.17-2.36,1.37,1.84,2.65,3.73,4.12,5.49,5.9,7.07,12.59,13.63,17.6,21.28,4.82,7.37,13.18,11.45,16.84,19.66.37.83,2.05,1,2.51,1.86a12.36,12.36,0,0,1,.76,3.72l-1.45.55c7,8.39,14.38,16.57,21.12,25.21,14.44,18.5,28.56,37.26,42.87,55.87,6.11,7.95,12.45,15.74,18.52,23.74,2.53,3.34,4.32,7.26,6.94,10.52,5.28,6.57,11,12.73,16.31,19.3,6.5,8.1,12.69,16.45,19,24.67,1.08,1.39,2.47,2.57,3.41,4,1.91,3,5.62,5,4.87,9.55-.15.91,1,2.19,1.86,3.09,5.1,5.69,8.62,11.82,5.35,19.56l-1.74-1.1c.1,1.8.19,3.43.31,5.62l-4-2.22V1056l-3.82-3.4c.85,4.33.88,7.84-2.74,9.76-5.51,2.94-10.85,4.37-13.86-4.82-.57,3.48-.88,5.42-1.19,7.35-.67,2.18-4.48,1-4.8,4.37a6.6,6.6,0,0,1-4.09.25c-1.81-.83-3.25-2.44-5.21-4-.26,1.34-.47,2.48-.83,4.34-3.91-3.2-7.92-6.15-11.55-9.52-5.55-5.15-10.86-10.55-16.19-15.93-.92-.93-1.36-2.31-2.16-3.39-14.57-19.81-29.21-39.57-43.72-59.43-4.74-6.49-9-13.32-13.77-19.81-2.5-3.42-5.58-6.42-8.35-9.65-6.2-7.23-12.33-14.54-18.63-21.69a5.76,5.76,0,0,0-3.84-1.66q-35.6-.57-71.2-.86a11.34,11.34,0,0,0-4.67,1.17h30.72v.25l-44.81,1.59-.22-.79c1.84-.43,3.66-1,5.52-1.25s3.81-.22,5.71-.32l-.15-1.17-17.39,2.52c-3.81,14.55-.18,28.89-1.67,43.14-.13-2-.27-4-.44-6.64-1.41,6.17-.78,8.83.52,15,.82,3.9,0,50.14-.05,54.22,0,7.88,0,15.76,0,23.74V1046h-.91c0,4.27-1.15,9,.36,12.67a23.37,23.37,0,0,1,1.9,8.82c.15,7.64.26,26.28.52,33.92,0,1.1.81,2.19,1.24,3.28Zm138.47-622c1.84-2.26,3.79-4.46,5.51-6.81q17-23.24,34-46.53a5.84,5.84,0,0,0-3.15,2.31Q585,444.07,574.93,456.64c2.68-4.26,5.16-8.66,8.09-12.75,5-7,10.26-13.75,15.42-20.61l-.29-1c-4.1.73-8.16,1.76-12.29,2.11-4.52.39-9.1.16-13.66.18-5.74,0-11.49,0-17.24,0l0,1.8,17.51.84a56.93,56.93,0,0,1-10.73.61c-14-.21-28.09-.7-42.13-.61s-28.1.94-42.16,1.13c-19.42.26-38.85.28-58.28.22-3.53,0-4.24,1.49-4,4.49.62,7.78,1.66,15.58,1.56,23.36-.17,14.72-1.06,29.43-1.56,44.15-.13,3.88.23,7.77.17,11.66-.09,5.07-.36,10.14-.55,15.21-.36,9-.74,18-1,27-.06,1.78.18,3.56.29,5.33h1.5V532.22h1.37l-2.1,125.18,1.07.55c7-8,14.14-15.9,21.12-23.94,3.93-4.53,7.58-9.31,11.52-13.83,3-3.46,6.44-6.56,9.42-10,2.31-2.7,4.17-5.78,6.3-8.65,6.13-8.24,13.15-15.7,20-23.36,13-14.55,24.88-30.06,37.17-45.22,6.82-8.41,13.53-16.92,20.28-25.4.36-.46,1-1.28.83-1.48-1.77-2.5.3-4,1.43-5.64,1.46-2.13,3.12-4.11,4.59-6.23,2.83-4.11,5.58-8.28,8.36-12.42ZM416.86,886.44h69.2c-11.9-16.15-23.41-32-35.11-47.59s-23.47-31-35.22-46.47l.78-.5q.23,4.47.44,8.94l-.74,0c-.17-1.12-.33-2.24-.49-3.36l-1,.07c.84,17.58,1.68,35.15,2.57,53.67-.39-1.82-.58-2.7-.78-3.59l.31.12Zm-54.05-89c-16.26,21.41-26.84,41.93-42.43,62.45l.9.7,3.58-4,3.17-3.58.24.32-24.95,33.08h32.53v.83h-11c11.38.5,19.75.58,31.12.47,5.6-.06,3.58-.23,3.65-6.16.26-20.65.49-41.3.82-62,.1-5.91.48-11.81.74-17.71l1,0v14.9l.64,0Zm41.13-530.19,0,1.14,53.44,2.21.06-1.48Zm-153,48.58,0-.86-39.14,1.27c0,.43,0,.85,0,1.28Zm303,106.8c0,.3,0,.6,0,.9h31.1v-.9ZM412.14,597.44l.55,0V561.09h-.55ZM434.66,382l-.06,1,29,1.77.06-1Zm167.71,0-.06.52h29.22l0-.52ZM453.9,425.43v-.55H423.06v.55ZM286.7,315.54l.08-.6h-25v.6Zm128.63,31.89-1.07.05c.37,5.8.74,11.6,1.07,16.8ZM415.27,853l-.95-.14q.48,7.84.95,15.68l.81,0Zm69.45-585.32c0,.35.09.7.14,1.05l15.79.9,0-.75Zm74,3v.49H579v-.49Z" transform="translate(-72.49 -262.14)"/><path d="M553.87,264.25H603v.51H554Z" transform="translate(-72.49 -262.14)"/><path d="M630.78,477.57c1.51-1.9,3-3.87,4.59-5.67a18.87,18.87,0,0,1,3-2.28c-4.74,7.23-9.41,14.5-14.25,21.66a34.58,34.58,0,0,1-4.14,4.35c.47-1.28.94-2.56,1.4-3.83C625.64,487.8,629.58,483.59,630.78,477.57Z" transform="translate(-72.49 -262.14)"/><path d="M609.16,511.78c-.91-1.42,3-2.85,0-4.26,2.39-3,4.72-6,7.19-8.85a13.51,13.51,0,0,1,2.75-2,58.59,58.59,0,0,1-3.21,6.14C613.78,505.92,611.41,508.81,609.16,511.78Z" transform="translate(-72.49 -262.14)"/><path d="M141.68,452.75l-13.85-20.62,1-.64,13.7,20.56Z" transform="translate(-72.49 -262.14)"/><path d="M163.13,480.92c1.18,2.46,2.35,4.92,3.55,7.37.58,1.19,1.23,2.34,1.84,3.51q-6-7.33-11.93-14.65l.82-.66Z" transform="translate(-72.49 -262.14)"/><path d="M586.55,319.39h-26v-1h26Z" transform="translate(-72.49 -262.14)"/><path d="M649,265.24H628.47v-.54h20.44Z" transform="translate(-72.49 -262.14)"/><path d="M420.26,1104.66c-.32-6.9-.63-24.8-.94-31.7l.84,0v31.62Z" transform="translate(-72.49 -262.14)"/><path d="M235.19,586.15l3.47,1.24,1.41,1.31-.71,1.73-1.68-1.67c-.08-.23-.15-.46-.23-.69l-.52.7Z" transform="translate(-72.49 -262.14)"/><path d="M566.11,469.25c-2.06,3.49-4.14,7-6.17,10.46-.52.9-.87,1.9-1.3,2.85l-1.79-.81Z" transform="translate(-72.49 -262.14)"/><path d="M472.37,431.86,450.93,433l0-.8,21.43-1.2Z" transform="translate(-72.49 -262.14)"/><path d="M417.44,804.32V830.6h-.63V804.42Z" transform="translate(-72.49 -262.14)"/><path d="M472.4,1173.77c-.35-.07-.78.3-.83-.4,0-2.15,1.5-3.65,1.52-5.81l-.55-.24,1.69-4.92c.45-3.2.86-6.4,1.2-9.59-.22,0-.42,0-.45-.28a15.1,15.1,0,0,1,.37-2.3c.09-.42.19-.86.29-1.32.16-.81.32-1.64.49-2.48l.16-1.57c-.06-.4-.25-.48-.37-.53.29-1.57.58-3,.87-4.3.83-8.37,1.48-15.93,2-22.61.24-3.34.43-6.47.59-9.39l.21-4.22.05-1,0-.5c0-.13,0,0-.06,0l-.1.07a10.19,10.19,0,0,0-.85.65l-.27.33-.26.24c-.18.17-.36.36-.54.55-.37.37-.76.86-1.13,1.23-1.67,2.72-3.1,5.07-4.39,7-1.75,2.56-3.46,4.72-5.19,6.84l-4.95,5.92a11.9,11.9,0,0,1-1.18,3.49c-.61,1.32-1.32,2.7-1.94,3.86-1.25,2.36-2,4-1.36,4.86-1.12,1-2.95,2.53-2.68,3.06s.35.87.51,1.33l.12.33a2.15,2.15,0,0,1,0,.44,6.42,6.42,0,0,1-.17,1,12.89,12.89,0,0,1-3.25,5.34,18.68,18.68,0,0,1-3.12,2.16,8.49,8.49,0,0,0-2.23,1.52c-.71,1.17,3.09-.66,2.39.51a89.34,89.34,0,0,0,7.95-5.75l1.65-1.35,0,0-.05,0c-.07,0,0-.23.17-.55l.14-.26s0,0,0,0c.33-.59.58-.9.72-.79s.19.57.16,1.24v.38l0,.26-.16,1c-.22,1.35-.43,2.69-.64,4-.44,2.64-.87,5.2-1.26,7.57-.81,4.74-1.53,8.7-2,11l-.11.84a86.41,86.41,0,0,0-1.79,15.51c.14,2,.39,4.1.61,6.16.49-.86,1-1.66,1.43-2.34-.39,2-.77,4-.54,4.83.15,4.41,1.57,2.15,3.23.73.8-1.08,1.46.66,2.39-1.09-.26,1.33-.38,2-.64,3.33.55.25.4-4.16,1.19-3.08a29.76,29.76,0,0,0-.59,4.07c.86-.33,1.08-4.57,1.81-4.24.05.74-1.68,3.58-.77,4,.18.08.44-1.25.57-1.92-.41,4.16.12,6.57,1.8,3a41.09,41.09,0,0,0-1.07,4.47h0c.15-.68.55-1.84.67-2.47l-.45,2.34c.15-.11.31-.22.47-.35a10.27,10.27,0,0,0,.52-1.74c-.09.51-.19,1-.29,1.55a12.81,12.81,0,0,0,1.12-1.18c.93-1.75,2.13-3.38,2.32-4.37C469.28,1189.88,471,1181.83,472.4,1173.77Z" transform="translate(-72.49 -262.14)"/><path d="M505.16,1177.59c-.34-.09-.78.24-.81-.42.08-2.06,1.6-3.4,1.68-5.47l-.54-.26c.59-1.48,1.21-3,1.83-4.61.55-3,1-6.09,1.47-9.13-.23,0-.43,0-.44-.29a39.34,39.34,0,0,1,1.07-4.76l.06-.82a.68.68,0,0,0-.39-.38c.27-1.14.52-2.15.75-3.1.51-4.08.87-7.92,1.22-11.59.2-1.85.29-3.56.41-5.27l.31-5c.14-3.14.27-6.1.35-8.91,0-1.35.07-2.71.11-4.08s0-2.6.06-3.91c-.1-.41-.2-.81-.29-1.22l0-.14,0-.08s0,0-.06,0l-.31.25-.62.52c-1.06,1.46-2,2.76-2.89,3.89-1.47,1.81-2.92,3.34-4.38,4.83s-2.94,2.91-4.27,4.3a15.91,15.91,0,0,1-1.46,3.61c-.68,1.34-1.46,2.72-2.14,4a28.33,28.33,0,0,0-1.63,3.43,5,5,0,0,0-.4,2.46c-1,1-2.6,2.52-2.53,3.31.16,2.41-.06,5.6.13,7v.05s0,0-.09.13-.29.37-.45.55l-.92,1c-.6.63-.95,1.11-.94,1.41s.12.36.34.28a6.55,6.55,0,0,0,.69-.25c.45-.18,1-.38,1,.08.32-.39.57-.75.94-1.18l.52-.63.26-.28,0,0c0,.05,0,.07,0,.1s-.05.1-.07.09,0-.28.23-.62.13-.15.12-.07c.32-.46.56-.68.69-.52a.8.8,0,0,1,.13.47c0,.12,0,.25,0,.4v.34s0,0,0,.06l-.05.23-.08.48c-1.83,10.1-4.1,20.69-5.2,25l-.14.79a75.19,75.19,0,0,0-2.19,14.71c.1,2,.29,3.94.49,5.93.5-.81,1-1.55,1.46-2.18-.43,1.89-.83,3.8-.61,4.6.08,4.23,1.53,2.11,3.21.82.81-1,1.44.69,2.39-1l-.68,3.15c.54.25.46-4,1.22-2.89a25.35,25.35,0,0,0-.63,3.85c.85-.29,1.13-4.31,1.85-4,.05.72-1.72,3.34-.81,3.77.18.08.45-1.17.59-1.8-.45,3.94.08,6.23,1.76,2.89a36.86,36.86,0,0,0-1.08,4.2h0c.15-.64.56-1.72.68-2.31l-.46,2.2a4.35,4.35,0,0,0,.47-.32,8.9,8.9,0,0,0,.54-1.63c-.11.49-.21,1-.31,1.46a9.41,9.41,0,0,0,1.12-1.08c.94-1.63,2.14-3.12,2.35-4C501.61,1192.73,503.51,1185.18,505.16,1177.59Z" transform="translate(-72.49 -262.14)"/></svg>